<?xml version="1.0" encoding="utf-8"?>
<!-- Generator: Adobe Illustrator 21.1.0, SVG Export Plug-In . SVG Version: 6.00 Build 0)  -->
<svg version="1.1"
	 id="svg2" inkscape:version="0.91 r13725" sodipodi:docname="people-a.svg" xmlns:cc="http://creativecommons.org/ns#" xmlns:dc="http://purl.org/dc/elements/1.1/" xmlns:inkscape="http://www.inkscape.org/namespaces/inkscape" xmlns:rdf="http://www.w3.org/1999/02/22-rdf-syntax-ns#" xmlns:sodipodi="http://sodipodi.sourceforge.net/DTD/sodipodi-0.dtd" xmlns:svg="http://www.w3.org/2000/svg"
	 xmlns="http://www.w3.org/2000/svg" xmlns:xlink="http://www.w3.org/1999/xlink" x="0px" y="0px" viewBox="0 0 50 50"
	 style="enable-background:new 0 0 50 50;" xml:space="preserve">
<style type="text/css">
	.st0{fill:#FFFFFF;}
</style>
<sodipodi:namedview  bordercolor="#666666" borderopacity="1" gridtolerance="10" guidetolerance="10" id="namedview20" inkscape:current-layer="svg2" inkscape:cx="25" inkscape:cy="25" inkscape:pageopacity="0" inkscape:pageshadow="2" inkscape:window-height="480" inkscape:window-maximized="0" inkscape:window-width="852" inkscape:window-x="0" inkscape:window-y="0" inkscape:zoom="4.72" objecttolerance="10" pagecolor="#ff0000" showgrid="false">
	</sodipodi:namedview>
<g id="Layer_2">
</g>
<g id="Layer_1">
	<circle id="circle8" class="st0" cx="24.6" cy="7.5" r="4.5"/>
</g>
<path class="st0" d="M24.5,13.9c-2,0-5,0.1-6.3,1.2S12.8,27.3,12.5,28c-0.3,0.8-0.3,1.1,0.1,1.5c0.4,0.4,1.2,0.8,1.9,0.2
	c0.8-0.8,4.9-10.9,4.9-10.9l0.1,10.5c0,0,0.2,16.3,0.2,17.7c0,0.7,0.5,1.2,1.7,1.2c1.1,0,1.9-0.3,1.8-1.3c0-0.9-0.4-15.5,0-17.1
	c0.1-1.1,0.3-1.1,1.3-1.1c1,0,1.2,0,1.3,1.1c0.4,1.6,0.2,16.2,0.2,17.1c-0.1,1,0.7,1.3,1.8,1.3c1.2,0,1.7-0.5,1.7-1.2
	c0-1.4,0-17.7,0-17.7V18.7c0,0,4.3,10.1,5.1,10.9c0.7,0.6,1.5,0.2,1.9-0.2c0.4-0.4,0.4-0.7,0.1-1.5c-0.3-0.7-4.6-11.8-5.9-12.9
	S26.5,13.9,24.5,13.9z"/>
</svg>
